<?xml version="1.0" encoding="utf-8"?>
<!-- Generator: Adobe Illustrator 21.0.0, SVG Export Plug-In . SVG Version: 6.00 Build 0)  -->
<svg version="1.1" id="clock" xmlns="http://www.w3.org/2000/svg" xmlns:xlink="http://www.w3.org/1999/xlink" x="0px" y="0px"
	 viewBox="0 0 100 100" style="enable-background:new 0 0 100 100;" xml:space="preserve">
<g>
	<path d="M50,0C22.4,0,0,22.4,0,50c0,27.6,22.4,50,50,50c27.6,0,50-22.4,50-50C100,22.4,77.6,0,50,0z M50,90.9
		C27.4,90.9,9.1,72.6,9.1,50S27.4,9.1,50,9.1S90.9,27.4,90.9,50S72.6,90.9,50,90.9z"/>
	<path d="M54.5,48.1V22.7c0-2.5-2-4.5-4.5-4.5s-4.5,2-4.5,4.5V50c0,0,0,0,0,0c0,0.3,0,0.6,0.1,0.9c0,0.1,0.1,0.3,0.1,0.4
		c0,0.1,0.1,0.3,0.1,0.4c0.1,0.2,0.2,0.3,0.2,0.4c0.1,0.1,0.1,0.2,0.2,0.3c0.2,0.3,0.4,0.5,0.6,0.7l12.9,12.9c1.8,1.8,4.7,1.8,6.4,0
		c1.8-1.8,1.8-4.7,0-6.4L54.5,48.1z"/>
</g>
</svg>
