<?xml version="1.0" standalone="no"?>
<!DOCTYPE svg PUBLIC "-//W3C//DTD SVG 20010904//EN"
 "http://www.w3.org/TR/2001/REC-SVG-20010904/DTD/svg10.dtd">
<svg version="1.0" xmlns="http://www.w3.org/2000/svg"
 width="700.000000pt" height="700.000000pt" viewBox="0 0 700.000000 700.000000"
 preserveAspectRatio="xMidYMid meet">
<metadata>
Created by potrace 1.11, written by Peter Selinger 2001-2013
</metadata>
<g transform="translate(0.000000,700.000000) scale(0.100000,-0.100000)"
fill="#000000" stroke="none">
<path d="M3278 6996 c-1 -2 -39 -6 -83 -10 -89 -7 -144 -13 -225 -26 -30 -5
-75 -12 -100 -16 -47 -6 -49 -7 -90 -17 -14 -4 -65 -16 -115 -28 -325 -76
-686 -227 -990 -412 -105 -64 -392 -269 -415 -296 -3 -3 -23 -21 -45 -40 -64
-54 -235 -222 -319 -314 -228 -250 -457 -601 -587 -900 -22 -50 -44 -101 -49
-112 -45 -92 -150 -427 -176 -560 -2 -11 -10 -54 -19 -95 -29 -147 -36 -198
-52 -370 -15 -163 -8 -591 12 -711 2 -13 6 -46 9 -74 9 -78 23 -156 51 -285
30 -141 110 -396 173 -550 175 -432 448 -837 788 -1171 96 -94 137 -132 244
-223 162 -138 456 -324 700 -443 210 -102 536 -216 743 -259 101 -21 216 -41
277 -49 25 -3 56 -7 69 -10 135 -26 700 -26 839 0 16 3 104 15 147 20 182 23
547 127 770 220 564 234 1076 627 1441 1105 27 36 52 66 57 68 4 2 7 10 7 17
0 7 3 15 8 17 21 9 177 260 259 418 96 185 174 379 252 625 10 31 50 184 57
220 17 81 54 301 59 350 4 33 9 71 11 85 9 48 11 525 4 605 -16 162 -21 210
-25 225 -2 8 -7 35 -10 60 -15 117 -78 375 -125 520 -325 985 -1053 1768
-2010 2163 -220 90 -558 185 -760 212 -19 3 -46 7 -60 10 -13 2 -52 7 -86 11
-33 3 -74 8 -90 10 -32 5 -540 14 -546 10z m412 -640 c52 -3 111 -8 130 -11
19 -3 55 -7 80 -10 45 -5 54 -7 145 -25 28 -5 61 -12 75 -14 125 -23 385 -109
540 -178 436 -196 840 -513 1110 -873 25 -33 47 -62 50 -65 6 -6 82 -121 135
-205 132 -208 285 -589 335 -829 41 -201 49 -258 65 -436 6 -61 6 -365 1 -420
-2 -19 -6 -64 -10 -100 -3 -36 -8 -75 -10 -85 -5 -26 -14 -82 -21 -125 -49
-290 -178 -640 -338 -915 -407 -699 -1093 -1198 -1877 -1364 -302 -64 -640
-81 -920 -46 -156 19 -316 49 -413 77 -23 6 -46 12 -52 14 -128 31 -399 141
-558 226 -591 317 -1047 820 -1305 1440 -65 157 -134 383 -157 518 -3 19 -10
53 -15 75 -5 22 -12 65 -15 95 -3 30 -8 66 -10 80 -16 99 -22 388 -11 525 13
152 19 197 47 340 10 55 21 109 23 120 41 215 191 578 338 820 405 667 1076
1148 1828 1310 8 2 35 8 60 13 25 6 65 13 90 17 25 3 56 8 70 10 47 8 117 15
195 20 43 3 80 6 81 8 4 4 217 -1 314 -7z"/>
<path d="M3404 5709 c-95 -29 -171 -105 -204 -204 -12 -33 -14 -226 -15 -1040
-1 -1072 -2 -1059 49 -1130 36 -51 969 -980 1006 -1002 173 -102 388 -25 461
165 29 78 22 180 -17 252 -19 36 -150 172 -448 468 l-422 417 0 915 c0 1055 6
981 -93 1081 -88 87 -198 115 -317 78z"/>
</g>
</svg>
